<?xml version="1.0" encoding="utf-8"?>
<!-- Generator: Adobe Illustrator 24.0.2, SVG Export Plug-In . SVG Version: 6.00 Build 0)  -->
<svg version="1.1" xmlns="http://www.w3.org/2000/svg" xmlns:xlink="http://www.w3.org/1999/xlink" x="0px" y="0px"
	 viewBox="0 0 267.6 168" style="enable-background:new 0 0 267.6 168;" xml:space="preserve">
<style type="text/css">
	.st0{fill:none;stroke:#000000;stroke-width:2;stroke-miterlimit:10;}
</style>
<g id="Capa_1">
	<path class="st0" d="M110.7,34.4c-2.9-0.5-6-0.8-9.1-0.8c-21.7,0-40.2,14-46.9,33.5"/>
	<path class="st0" d="M233.1,70.6c0.1-1.4,0.1-2.8,0.1-4.2c0-36.1-29.3-65.4-65.4-65.4c-24.5,0-45.9,13.5-57.1,33.4"/>
	<path class="st0" d="M217.1,167c27.3,0,49.5-22.2,49.5-49.5c0-21.8-14-40.2-33.6-46.9"/>
	<path class="st0" d="M51,167h166.1"/>
	<path class="st0" d="M54.8,67.1c-1.2-0.1-2.5-0.2-3.8-0.2c-27.6,0-50,22.4-50,50s22.4,50,50,50"/>
</g>
<g id="Capa_2">
	<path class="st0" d="M233.1,70.6c0.1-1.4,0.1-2.8,0.1-4.2c0-36.1-29.3-65.4-65.4-65.4c-24.5,0-45.9,13.5-57.1,33.4
		c-2.9-0.5-6-0.8-9.1-0.8c-21.7,0-40.2,14-46.9,33.5c-1.2-0.1-2.5-0.2-3.8-0.2c-27.6,0-50,22.4-50,50s22.4,50,50,50h166.1
		c27.3,0,49.5-22.2,49.5-49.5C266.6,95.7,252.6,77.3,233.1,70.6z"/>
</g>
</svg>
