<?xml version="1.0" encoding="utf-8"?>
<!-- Generator: Adobe Illustrator 24.0.2, SVG Export Plug-In . SVG Version: 6.00 Build 0)  -->
<svg version="1.1" id="ad2cccd5-fea2-4094-b9ff-3566e03b2839"
	 xmlns="http://www.w3.org/2000/svg" xmlns:xlink="http://www.w3.org/1999/xlink" x="0px" y="0px" viewBox="0 0 199.5 200.2"
	 style="enable-background:new 0 0 199.5 200.2;" xml:space="preserve">
<style type="text/css">
	.st0{fill:#2BB6F5;}
</style>
<path class="st0" d="M87.1,199c16.5-8.1,30.8-16.9,43.6-27.9c17.8-15.2,32.2-32.7,37.4-56.3c8.6-39.4-18.5-78.3-58.6-83.8
	c-43.2-5.9-80.4,27.1-79.6,70.7c0.7,28.2,18.3,53.3,44.6,63.6c9.8,3.8,12.1,7.1,12.1,17.5c0,4.2-0.2,8.3,0.1,12.5
	c0.2,3.1-0.7,4-4,3.5C42.5,191.9,9,159.2,1.8,119.6C-8.5,63.3,26.8,12.1,83,1.6c52-9.7,105.2,26.9,114.7,79.1
	c10.2,56.4-24.8,107.5-81.1,118C106.9,200.6,96.9,200.7,87.1,199z"/>
</svg>
